<?xml version="1.0" standalone="no"?>
<!DOCTYPE svg PUBLIC "-//W3C//DTD SVG 20010904//EN"
 "http://www.w3.org/TR/2001/REC-SVG-20010904/DTD/svg10.dtd">
<svg version="1.0" xmlns="http://www.w3.org/2000/svg"
 width="604.000000pt" height="94.000000pt" viewBox="0 0 604.000000 94.000000"
 preserveAspectRatio="xMidYMid meet">
<metadata>
Created by potrace 1.16, written by Peter Selinger 2001-2019
</metadata>
<g transform="translate(0.000000,94.000000) scale(0.100000,-0.100000)"
fill="#000000" stroke="none">
<path d="M134 841 c-74 -45 -74 -203 0 -270 23 -21 26 -32 26 -87 0 -55 -3
-63 -26 -79 -33 -22 -54 -72 -54 -132 0 -60 25 -111 69 -140 33 -23 39 -23
327 -23 163 0 304 4 318 10 19 7 36 5 68 -8 39 -16 80 -18 398 -17 346 0 356
1 397 23 l41 22 54 -24 53 -24 341 6 c309 6 344 9 362 25 19 17 21 17 60 -3
38 -20 52 -21 189 -16 81 3 155 5 163 4 8 0 206 -3 440 -5 234 -3 470 -6 525
-7 55 0 336 0 625 2 353 2 536 0 560 -7 77 -24 228 -11 307 26 30 14 37 14 73
-1 55 -22 393 -23 445 -2 45 19 65 61 65 136 0 61 -15 105 -44 129 -14 11 -16
43 -16 200 0 210 -6 233 -73 264 -40 19 -227 24 -271 7 -35 -13 -66 -66 -66
-112 0 -33 -3 -37 -32 -43 -18 -4 -53 -17 -77 -30 l-44 -22 -56 23 c-82 34
-207 33 -295 -2 l-64 -25 -42 21 c-58 30 -132 36 -204 17 -38 -11 -66 -13 -82
-7 -12 5 -128 10 -256 10 -128 1 -302 4 -386 6 -123 4 -162 2 -200 -10 -44
-15 -53 -15 -91 -1 -24 8 -63 15 -87 15 l-44 0 0 38 c0 20 -9 51 -19 68 -31
50 -73 64 -201 64 -116 0 -159 -11 -179 -47 -9 -17 -11 -16 -33 3 -44 41 -62
44 -232 44 l-166 0 -30 -27 c-50 -45 -61 -151 -23 -226 13 -26 12 -32 -14 -75
l-28 -47 -5 142 c-4 123 -8 145 -26 170 -35 48 -78 63 -179 62 -139 0 -215
-41 -250 -134 l-17 -44 -112 -3 c-61 -2 -229 1 -372 6 -235 8 -267 7 -314 -8
-42 -14 -58 -15 -87 -5 -22 7 -83 10 -157 8 -66 -1 -145 -2 -173 -1 l-53 2 0
43 c0 53 -27 99 -73 120 -30 15 -75 17 -329 17 -270 0 -295 -2 -324 -19z m606
-106 c11 -14 7 -23 -30 -60 -45 -46 -72 -55 -30 -10 13 14 20 25 15 25 -4 0 0
10 11 23 l19 22 -22 -19 c-13 -11 -23 -15 -23 -11 0 5 -12 -3 -27 -17 -16 -14
-44 -29 -63 -33 l-35 -7 26 28 c45 50 45 73 0 29 -23 -21 -41 -35 -41 -30 0 4
-10 0 -22 -11 l-23 -19 19 22 c10 13 23 20 29 16 5 -3 7 -1 4 4 -4 6 0 14 9
17 9 4 14 9 10 13 -3 3 -15 -2 -26 -12 -11 -10 -20 -15 -20 -10 0 4 -9 -4 -21
-19 -11 -14 -25 -26 -31 -26 -7 0 -1 11 12 25 30 32 23 32 -20 0 -48 -35 -58
-19 -16 24 23 24 31 38 22 38 -8 0 -41 -27 -73 -60 -32 -33 -51 -56 -43 -51
13 7 13 5 1 -9 -7 -9 -17 -15 -21 -12 -4 2 -17 -6 -29 -19 -13 -13 -18 -27
-13 -30 6 -3 35 19 66 50 31 31 56 50 56 43 0 -17 -14 -40 -26 -42 -5 -1 -8
-6 -6 -10 1 -5 -2 -6 -7 -3 -13 8 -91 -80 -91 -103 0 -30 15 -33 36 -8 l19 22
-25 -20 -25 -20 19 22 c10 13 23 20 28 17 5 -4 26 9 45 27 20 19 33 28 29 22
-6 -10 16 -13 93 -13 56 0 102 -3 102 -7 1 -5 3 -21 5 -37 2 -16 5 -35 8 -43
4 -10 -9 -13 -62 -13 l-67 1 50 44 c29 26 43 45 35 45 -9 0 -33 -21 -54 -46
-34 -41 -42 -45 -72 -42 l-34 4 0 -63 0 -63 98 0 c115 0 131 8 139 68 5 41 7
42 42 42 55 0 61 -12 61 -117 l0 -93 -246 0 c-193 0 -244 3 -238 12 5 9 2 8
-9 -1 -28 -23 -67 3 -67 45 0 28 4 33 30 39 17 4 35 15 40 25 11 20 14 278 4
304 -3 8 -21 20 -40 26 -30 10 -34 16 -34 46 l0 34 269 0 c230 0 270 -2 281
-15z m1732 -2 c13 -12 18 -31 18 -73 l0 -56 -35 4 c-29 3 -35 8 -35 27 0 14
-7 25 -19 28 -15 3 -18 1 -14 -11 5 -11 3 -13 -7 -7 -10 6 -12 2 -7 -16 4 -13
7 -32 7 -41 0 -14 9 -18 43 -18 50 0 67 -13 67 -52 0 -27 -1 -28 -55 -28 l-55
0 0 -69 c0 -101 -7 -121 -64 -171 -28 -25 -45 -37 -37 -27 7 9 10 17 5 17 -4
0 1 10 12 22 42 48 46 62 10 28 -39 -35 -41 -25 -3 18 26 28 11 29 -19 1 -12
-11 -28 -21 -35 -23 -23 -3 -40 -17 -49 -40 -7 -18 -9 -16 -9 14 -1 27 4 37
22 45 20 9 22 18 25 95 3 80 1 86 -20 95 -16 7 -24 20 -26 43 -3 29 -1 32 22
32 24 0 26 3 26 48 0 61 28 108 72 121 56 16 139 13 160 -6z m558 -38 c14 -27
59 -121 100 -208 58 -123 81 -162 102 -173 25 -13 28 -12 38 5 6 11 10 87 10
175 l0 155 -30 21 c-22 15 -30 30 -30 51 l0 29 88 0 c55 0 92 -4 100 -12 8 -8
12 -47 12 -110 l0 -98 41 20 c59 30 132 37 165 16 42 -29 65 -94 62 -178 -3
-70 -2 -74 25 -90 19 -12 27 -26 27 -45 l0 -28 -120 3 -120 3 0 35 c0 23 5 34
15 34 21 0 35 32 35 80 0 23 -5 50 -10 61 -16 28 -57 24 -90 -10 -16 -16 -30
-27 -32 -26 -2 2 -2 -20 0 -49 3 -42 8 -54 25 -61 14 -7 23 -21 25 -40 3 -30
2 -31 -38 -27 -36 4 -39 6 -28 21 10 13 9 13 -8 -2 -14 -12 -38 -17 -78 -17
-36 0 -55 -4 -51 -10 4 -6 -16 -10 -54 -10 -33 0 -63 5 -67 11 -4 8 -9 8 -17
0 -6 -6 -18 -11 -26 -11 -10 0 -3 13 20 37 l34 37 -47 -38 c-27 -21 -48 -33
-48 -27 0 7 -5 9 -12 5 -7 -4 -8 -3 -4 5 4 6 11 9 16 6 5 -3 11 -1 14 4 4 6
-7 8 -25 6 l-32 -4 24 27 c22 25 22 25 -9 -2 -31 -29 -42 -43 -22 -31 16 10
11 -1 -7 -16 -11 -10 -14 -10 -9 -1 4 7 1 12 -8 12 -12 0 -16 10 -16 40 0 33
3 40 20 40 21 0 45 34 35 50 -4 6 -57 10 -121 10 -74 0 -113 -4 -109 -10 3 -6
1 -10 -4 -10 -24 0 -9 -27 22 -41 28 -12 32 -19 35 -56 3 -36 1 -42 -17 -40
-11 0 -17 5 -15 9 3 5 8 6 12 4 4 -2 7 9 7 24 1 21 -3 26 -11 20 -6 -6 -13 -8
-16 -5 -3 3 -11 -3 -19 -12 -13 -17 -13 -17 6 -3 16 11 18 11 7 0 -14 -17 -62
-22 -62 -7 0 6 -12 0 -27 -14 -20 -17 -23 -18 -10 -3 9 11 14 23 11 27 -4 4 2
5 14 2 12 -2 29 6 43 23 14 16 16 21 5 12 -27 -21 -49 -22 -41 -2 5 13 1 11
-17 -4 -13 -12 -34 -27 -48 -34 -22 -12 -23 -11 -13 2 7 8 9 18 5 22 -4 4 0 6
8 4 8 -1 14 2 15 7 0 6 4 17 9 25 5 8 -4 3 -21 -12 -35 -34 -54 -37 -27 -5
l19 22 -22 -19 c-13 -10 -21 -21 -19 -25 2 -3 0 -15 -5 -26 -6 -15 -8 -10 -8
22 -1 33 3 43 19 48 20 6 54 60 145 228 37 69 45 91 35 102 -6 7 -18 11 -26 8
-24 -9 -44 17 -44 59 l0 39 133 -3 132 -3 25 -50z m2748 43 c9 -9 12 -71 12
-219 l0 -208 28 -13 c20 -10 28 -22 30 -46 l3 -32 -93 5 c-127 8 -127 8 -122
17 3 4 -2 5 -10 2 -9 -3 -14 -10 -11 -15 9 -13 -61 -22 -84 -10 -12 7 -21 9
-21 6 0 -3 -17 3 -37 14 -80 41 -119 113 -111 203 6 61 31 96 88 126 54 27
111 28 168 2 l42 -19 0 52 c0 55 -12 77 -42 77 -14 0 -18 8 -18 35 l0 35 83 0
c51 0 88 -5 95 -12z m-4196 -164 l37 -6 -28 -24 c-24 -20 -41 -61 -19 -48 4 3
11 -1 14 -10 3 -8 14 -13 25 -11 11 2 17 0 14 -6 -4 -5 -18 -8 -31 -6 -26 3
-47 25 -38 39 3 4 -2 8 -11 8 -12 0 -8 7 12 25 20 17 23 24 12 25 -8 0 -29
-14 -47 -31 -41 -41 -64 -28 -25 15 15 17 21 25 13 19 -16 -15 -34 -17 -26 -4
5 8 -24 8 -84 -2 -39 -6 -67 -24 -73 -47 -4 -17 -3 -19 9 -9 7 6 11 16 7 22
-4 6 -1 7 6 3 7 -5 22 0 34 10 12 10 8 3 -8 -16 -17 -19 -39 -46 -50 -60 l-20
-25 24 20 c13 11 26 19 30 19 3 -1 17 7 30 17 13 11 19 19 14 19 -5 0 -16 -6
-23 -12 -8 -7 1 4 20 25 19 21 36 33 38 27 3 -8 8 -8 17 0 8 6 16 7 19 2 5 -9
-39 -57 -52 -57 -4 0 -6 -4 -4 -9 1 -4 -3 -16 -10 -25 -11 -14 -11 -14 3 -4 9
7 19 9 25 4 5 -5 41 -11 80 -13 46 -2 80 -10 98 -22 l28 -18 -48 -51 -49 -52
45 43 c52 48 60 51 60 19 0 -14 -18 -40 -45 -67 -25 -24 -45 -40 -45 -35 0 5
-13 -3 -28 -18 -16 -15 -31 -25 -34 -22 -3 3 -11 -1 -18 -10 -7 -8 -17 -15
-23 -15 -6 0 7 19 28 43 l40 42 -45 -42 c-34 -31 -48 -38 -56 -30 -9 9 -7 18
9 34 11 13 16 23 10 23 -6 0 -19 -11 -29 -25 -17 -22 -43 -37 -31 -17 3 4 -11
7 -31 7 -37 0 -37 0 -40 48 l-3 47 37 0 c26 0 35 -4 31 -13 -5 -15 -5 -15 66
-23 59 -7 97 1 97 22 0 11 -5 14 -17 10 -14 -6 -14 -4 2 16 l20 23 -26 -22
c-26 -24 -59 -31 -59 -13 0 6 -10 10 -22 10 -19 0 -16 7 27 52 28 29 37 41 22
28 -16 -14 -30 -24 -33 -22 -2 1 -4 -1 -5 -5 -1 -18 -43 -51 -59 -48 -56 11
-90 57 -90 122 0 47 22 80 64 99 32 14 154 18 218 8z m2488 -7 c44 -22 61 -71
59 -172 -1 -68 1 -90 12 -94 8 -2 19 -11 26 -20 11 -14 12 -14 13 -1 0 8 10
20 23 25 20 9 22 18 25 86 3 72 1 77 -23 93 -19 12 -25 25 -25 51 l0 35 81 0
c70 0 83 -3 97 -21 l17 -20 45 20 c63 29 121 27 157 -3 l29 -25 52 26 c65 32
142 36 173 7 40 -36 50 -70 48 -162 -1 -66 1 -87 12 -91 22 -7 38 -34 39 -63
l0 -28 -103 0 c-67 0 -107 4 -115 12 -18 18 -16 78 3 78 38 0 50 115 15 150
-11 11 -26 20 -32 20 -9 0 -8 -4 2 -11 12 -8 9 -9 -13 -5 -19 5 -29 2 -33 -9
-3 -8 -10 -12 -15 -9 -5 3 -9 2 -8 -3 3 -18 -1 -34 -8 -30 -5 3 -6 -19 -5 -49
2 -30 9 -54 14 -54 18 0 37 -33 38 -62 l0 -28 -103 0 c-67 0 -107 4 -115 12
-18 18 -16 78 3 78 21 0 35 33 35 82 0 47 -17 80 -44 84 -9 1 -14 -2 -10 -7 3
-5 0 -9 -6 -9 -6 0 -22 -11 -35 -25 -33 -32 -35 -105 -5 -137 11 -12 20 -34
20 -50 l0 -28 -103 0 c-67 0 -107 4 -115 12 -9 9 -12 9 -12 0 0 -20 -145 -16
-177 6 -15 9 -24 12 -20 6 8 -13 -19 -27 -34 -18 -6 3 -15 1 -22 -4 -15 -12
-67 -13 -67 -1 0 5 -9 9 -20 9 -11 0 -34 13 -51 28 -56 50 -48 168 13 188 l22
7 -22 17 c-17 14 -22 29 -22 63 0 55 -2 54 155 55 70 1 119 -3 135 -11z m1166
-6 c61 -28 102 -96 96 -158 l-3 -33 -67 -1 c-37 0 -92 0 -123 1 -50 1 -56 -1
-54 -19 1 -10 7 -26 14 -35 18 -21 93 -30 154 -18 63 12 77 4 77 -45 0 -27 -3
-34 -15 -29 -8 3 -15 1 -15 -5 0 -6 -9 -8 -21 -4 -15 5 -19 4 -14 -5 5 -8 -3
-9 -30 -4 -27 5 -36 4 -31 -5 19 -31 -149 18 -195 56 -61 52 -85 146 -55 216
17 41 65 85 102 97 51 15 136 11 180 -9z m-4296 -5 c0 -8 -7 -13 -16 -12 -9 0
-23 -10 -32 -24 l-16 -25 22 19 c12 11 22 15 22 11 0 -5 5 -4 12 3 7 7 16 12
20 12 20 0 3 -31 -54 -95 l-62 -70 62 60 c34 33 62 55 62 50 0 -4 -8 -17 -17
-27 -16 -18 -16 -18 0 -12 14 5 17 0 17 -23 0 -16 -4 -33 -9 -39 -15 -15 6
-53 34 -60 35 -9 83 13 100 47 17 32 20 100 6 115 -6 5 4 18 27 33 l37 24 -28
-31 c-17 -17 -24 -32 -19 -36 6 -4 13 -2 17 4 11 17 105 60 105 47 0 -6 -28
-41 -62 -77 l-63 -65 62 59 62 59 -2 -99 c-2 -91 0 -99 18 -103 26 -5 44 -30
45 -63 0 -27 -2 -28 -56 -28 -41 0 -53 3 -48 13 6 9 4 9 -7 0 -7 -7 -23 -13
-35 -13 -25 0 -57 37 -47 53 3 6 1 7 -6 3 -6 -4 -9 -11 -6 -16 3 -4 -2 -11
-11 -14 -8 -3 -12 -2 -9 4 4 6 -5 5 -19 -1 -14 -7 -23 -16 -20 -20 3 -5 -9 -6
-27 -2 -23 4 -30 3 -25 -5 4 -7 1 -12 -8 -12 -9 0 -16 5 -16 10 0 6 -10 10
-23 10 -12 0 -33 7 -45 16 -39 27 -51 65 -53 170 -1 89 0 99 20 115 28 23 27
25 -17 25 -30 0 -38 -4 -39 -19 -2 -18 -1 -18 17 -2 13 12 20 13 26 4 5 -8 3
-10 -7 -4 -8 5 -11 5 -7 0 12 -13 -11 -33 -32 -28 -14 4 -20 14 -20 32 0 15 3
31 7 34 3 4 42 7 85 7 60 0 78 -3 78 -14z m900 1 c0 -7 -22 -35 -50 -62 -27
-27 -50 -54 -50 -60 0 -5 7 -2 14 8 8 10 18 17 22 15 12 -4 74 43 74 56 0 5
-13 -3 -30 -19 -16 -16 -30 -25 -30 -20 0 10 51 65 60 65 15 0 10 -74 -7 -94
-16 -19 -17 -20 0 -7 35 27 15 -5 -35 -59 -29 -30 -53 -63 -54 -72 -1 -10 3
-15 8 -12 4 3 6 10 3 15 -4 5 1 9 10 9 8 0 19 10 24 23 5 12 21 33 36 47 l27
25 -7 -35 c-7 -36 -42 -83 -55 -75 -4 3 -16 -5 -26 -17 -11 -12 -13 -18 -7
-14 9 5 11 2 7 -8 -8 -21 -11 -20 -26 7 -13 22 -28 207 -17 204 9 -3 69 66 63
72 -2 3 -20 -11 -39 -29 -19 -18 -37 -31 -40 -28 -3 2 4 13 15 23 11 10 20 22
20 27 0 13 -55 3 -56 -10 -1 -7 -2 -16 -3 -22 0 -5 -5 -10 -11 -10 -11 0 -14
53 -3 63 3 4 42 7 85 7 57 0 78 -3 78 -13z m276 -4 c24 -32 15 -51 -46 -105
-33 -29 -60 -59 -60 -68 0 -10 10 -5 29 15 15 17 41 43 58 58 l30 28 1 -44 c1
-40 -3 -48 -58 -102 -33 -33 -60 -64 -60 -69 0 -6 27 16 60 49 33 33 60 54 60
48 0 -7 -4 -14 -9 -17 -5 -3 -7 -14 -5 -24 3 -11 -13 -34 -46 -67 -27 -27 -50
-45 -50 -39 0 6 12 21 26 35 14 13 35 38 47 54 17 24 12 22 -29 -14 -27 -25
-52 -50 -56 -55 -4 -6 -8 0 -8 13 0 22 -1 23 -24 8 -13 -9 -27 -13 -30 -10 -8
8 75 94 84 88 4 -2 22 11 40 30 19 19 30 35 25 35 -5 0 0 6 11 14 10 8 15 18
11 22 -4 4 -46 -30 -92 -76 -47 -47 -85 -80 -85 -74 0 5 6 16 13 23 31 31 -51
-13 -85 -46 -20 -20 -36 -29 -35 -22 4 22 18 40 27 34 5 -3 14 4 20 15 16 29
-1 25 -51 -14 -56 -45 -64 -37 -14 14 34 34 44 40 68 34 66 -14 117 37 117
118 0 34 6 49 33 77 31 35 32 35 2 11 -16 -14 -33 -29 -36 -34 -4 -5 -19 -6
-33 -2 -22 5 -26 12 -26 41 l0 35 81 0 c66 0 84 -3 95 -17z"/>
<path d="M5508 473 c-24 -26 -32 -101 -13 -126 52 -71 165 -29 165 61 0 59
-26 86 -84 87 -36 0 -51 -4 -68 -22z"/>
</g>
</svg>
