<?xml version="1.0" standalone="no"?>
<!DOCTYPE svg PUBLIC "-//W3C//DTD SVG 20010904//EN"
 "http://www.w3.org/TR/2001/REC-SVG-20010904/DTD/svg10.dtd">
<svg version="1.0" xmlns="http://www.w3.org/2000/svg"
 width="745.000000pt" height="100.000000pt" viewBox="0 0 745.000000 100.000000"
 preserveAspectRatio="xMidYMid meet">
<metadata>
Created by potrace 1.16, written by Peter Selinger 2001-2019
</metadata>
<g transform="translate(0.000000,100.000000) scale(0.100000,-0.100000)"
fill="#000000" stroke="none">
<path d="M3677 914 c-19 -10 -114 -144 -287 -404 -260 -391 -272 -412 -240
-444 15 -15 163 -21 188 -7 11 6 80 106 153 222 l134 212 3 -212 2 -212 26 -9
c33 -13 115 -13 148 0 l26 10 0 401 0 401 -29 29 c-34 33 -78 38 -124 13z
m102 -38 c15 -18 26 -427 16 -623 l-7 -143 -59 0 -59 0 -1 48 c-1 26 -5 141
-8 257 l-6 210 -72 -115 c-40 -63 -114 -178 -165 -255 l-93 -140 -77 -3 -77
-3 108 168 c128 197 373 558 400 591 23 26 82 30 100 8z"/>
<path d="M4925 912 c-20 -13 -111 -140 -265 -372 l-235 -353 -3 353 c-1 246
-6 357 -14 367 -8 10 -33 13 -97 11 -103 -4 -99 4 -100 -180 l-1 -128 -75 0
-75 0 -1 128 c-1 187 4 177 -109 177 l-95 0 -3 -423 -2 -422 26 -10 c14 -6 52
-10 85 -10 94 0 99 8 99 185 l0 145 75 0 75 0 0 -145 c0 -194 -12 -183 201
-183 90 0 171 4 180 9 9 4 77 104 150 220 l134 212 3 -212 2 -212 28 -10 c15
-6 55 -8 92 -5 36 3 70 6 75 5 173 -11 171 -11 198 13 14 13 82 112 151 221
l125 199 3 -180 3 -181 29 -30 c41 -43 85 -56 128 -38 46 20 61 38 192 246
l116 184 0 -206 c0 -201 0 -206 22 -221 30 -21 136 -21 166 0 l22 15 0 380 c0
407 -3 434 -51 459 -31 17 -96 6 -126 -22 -14 -13 -84 -113 -156 -223 l-132
-199 -5 195 c-4 164 -8 199 -23 222 -32 49 -113 48 -159 -1 -15 -15 -133 -187
-262 -382 l-236 -355 0 358 0 359 -29 29 c-35 34 -81 38 -126 11z m-905 -182
l0 -160 115 0 115 0 0 160 0 160 63 0 64 0 5 -252 c2 -139 2 -314 -1 -388 l-6
-135 -60 0 -60 0 -3 163 -2 162 -115 0 -115 0 -2 -162 -3 -163 -61 -3 -62 -3
-7 133 c-5 98 -2 624 4 646 1 1 30 2 66 2 l65 0 0 -160z m1008 148 c14 -18 26
-441 17 -620 l-7 -148 -59 0 -59 0 -1 48 c-1 26 -5 141 -8 257 l-6 210 -72
-115 c-40 -63 -114 -178 -165 -255 l-93 -140 -64 -3 c-35 -2 -68 1 -72 5 -10
11 416 664 490 751 22 25 81 31 99 10z m676 -4 c14 -13 16 -51 16 -260 0 -134
3 -244 8 -244 4 0 77 105 162 232 194 289 193 288 235 288 67 0 66 9 63 -403
l-3 -372 -60 0 -60 0 -5 260 -5 260 -74 -120 c-148 -238 -251 -386 -277 -395
-32 -13 -67 -4 -91 22 -16 18 -19 46 -23 257 l-5 236 -88 -140 c-48 -77 -123
-194 -166 -260 l-79 -120 -71 -3 c-56 -2 -71 0 -71 11 0 19 465 716 496 745
29 26 76 29 98 6z"/>
<path d="M77 913 c-4 -3 -7 -195 -7 -425 l0 -418 26 -10 c14 -6 108 -10 210
-10 174 0 185 1 205 21 19 19 21 30 17 100 -3 43 -10 85 -18 93 -10 13 -35 16
-121 16 l-109 0 0 50 0 50 90 0 c85 0 90 1 106 25 13 20 16 42 12 100 -3 41
-11 81 -18 90 -9 11 -34 15 -101 15 l-89 0 0 44 0 45 114 3 114 3 5 -185 c5
-205 15 -255 70 -336 102 -153 369 -176 510 -45 84 78 116 179 118 376 0 63 4
91 8 75 36 -118 111 -169 266 -180 130 -9 174 -36 146 -89 -18 -32 -67 -41
-226 -41 -126 0 -155 -3 -165 -16 -8 -8 -15 -50 -18 -93 -4 -71 -2 -81 18
-101 22 -22 27 -22 194 -18 192 6 238 17 308 77 44 38 88 119 88 164 0 41 14
33 27 -16 31 -113 127 -196 254 -217 212 -36 374 80 409 292 11 70 12 498 1
538 -7 24 -11 25 -90 28 -53 2 -88 -1 -97 -9 -11 -9 -14 -59 -14 -263 0 -261
-6 -310 -41 -342 -26 -23 -142 -31 -179 -12 -55 29 -60 59 -60 343 0 190 -3
264 -12 273 -16 16 -170 16 -186 0 -9 -9 -12 -80 -13 -253 0 -220 -2 -237 -15
-201 -20 57 -58 102 -110 132 -38 23 -62 28 -148 33 -109 7 -126 13 -126 40 0
36 20 41 176 41 118 0 154 3 163 14 8 9 11 47 9 107 l-3 94 -190 0 c-185 0
-192 -1 -240 -26 -55 -28 -112 -95 -123 -143 -5 -23 -8 -7 -13 60 -3 49 -9 96
-13 102 -10 16 -168 16 -184 0 -9 -9 -12 -81 -12 -262 0 -261 -6 -310 -41
-342 -26 -23 -142 -31 -179 -12 -55 29 -60 59 -60 343 0 190 -3 264 -12 273
-15 15 -170 16 -185 1 -8 -8 -13 -8 -17 0 -8 12 -418 16 -429 4z m403 -88 l0
-65 -120 0 -120 0 0 -95 0 -95 105 0 105 0 0 -65 0 -65 -105 0 -106 0 3 -97 3
-98 123 -3 123 -3 -3 -62 -3 -62 -186 -3 -187 -2 -7 142 c-5 106 -2 503 5 631
0 4 83 7 185 7 l185 0 0 -65z m203 -201 c5 -227 9 -271 24 -302 30 -60 61 -76
152 -76 85 0 117 13 147 59 21 32 33 183 33 418 l1 167 65 0 65 0 0 -254 c0
-297 -10 -349 -80 -429 -61 -69 -116 -91 -225 -91 -50 0 -107 6 -129 13 -55
19 -129 92 -157 154 -23 50 -24 63 -27 330 l-3 277 64 0 64 0 6 -266z m1061
250 c4 -9 3 -38 0 -65 l-6 -48 -148 -3 c-141 -3 -150 -4 -174 -27 -35 -33 -35
-83 -1 -116 22 -22 33 -25 107 -25 136 -1 212 -42 255 -138 65 -141 -21 -299
-181 -332 -29 -6 -115 -9 -192 -8 l-139 3 -3 61 -3 62 163 4 c181 4 215 14
243 69 28 54 -1 113 -68 138 -16 6 -59 11 -96 11 -83 0 -145 21 -188 62 -98
95 -76 270 41 330 61 32 88 36 242 37 122 1 143 -1 148 -15z m259 -250 c5
-227 9 -271 24 -302 30 -60 61 -76 152 -76 85 0 117 13 147 59 21 32 33 183
33 418 l1 167 65 0 65 0 0 -254 c0 -297 -10 -349 -80 -429 -61 -69 -116 -91
-225 -91 -50 0 -107 6 -129 13 -55 19 -129 92 -157 154 -23 50 -24 63 -27 330
l-3 277 64 0 64 0 6 -266z"/>
<path d="M120 180 l0 -50 175 0 175 0 0 45 c0 36 -3 45 -18 45 -9 0 -22 -10
-27 -22 -13 -29 -56 -39 -140 -32 -83 7 -122 20 -136 45 -17 33 -29 20 -29
-31z"/>
<path d="M620 252 c0 -20 53 -73 93 -93 26 -14 68 -23 117 -26 101 -7 175 14
230 66 67 63 46 85 -30 30 -58 -42 -111 -59 -184 -59 -61 0 -112 19 -193 71
-18 11 -33 16 -33 11z"/>
<path d="M1693 235 c-59 -47 -117 -65 -220 -71 -107 -7 -152 3 -160 36 -3 11
-12 20 -19 20 -10 0 -14 -13 -14 -46 l0 -46 168 4 c152 3 171 5 211 26 48 26
91 68 91 88 0 21 -21 17 -57 -11z"/>
<path d="M1940 252 c0 -20 53 -73 93 -93 26 -14 68 -23 117 -26 101 -7 175 14
230 66 67 63 46 85 -30 30 -58 -42 -111 -59 -184 -59 -61 0 -112 19 -193 71
-18 11 -33 16 -33 11z"/>
<path d="M2547 914 c-4 -4 -7 -196 -7 -426 l0 -418 26 -10 c14 -6 52 -10 85
-10 93 0 99 10 99 175 l0 135 74 0 c99 0 106 7 106 114 0 50 -5 87 -12 94 -7
7 -43 12 -90 12 l-78 0 0 60 0 60 94 0 c68 0 97 4 105 14 8 9 11 47 9 107 l-3
94 -201 3 c-110 1 -203 -1 -207 -4z m376 -39 c4 -8 3 -37 0 -65 l-6 -50 -103
0 -104 0 0 -105 0 -105 90 0 90 0 0 -70 0 -70 -90 0 -89 0 -3 -147 -3 -148
-61 -3 -62 -3 -7 143 c-5 105 -2 613 4 636 1 1 77 2 170 2 139 0 170 -3 174
-15z"/>
<path d="M6247 913 c-4 -3 -7 -195 -7 -425 l0 -418 27 -11 c21 -8 216 -8 423
0 8 0 68 -2 133 -5 141 -7 232 7 316 46 164 78 258 266 231 462 -21 148 -101
261 -228 321 -67 32 -68 32 -250 35 -126 3 -187 0 -197 -8 -9 -7 -15 -8 -20 0
-7 11 -417 15 -428 3z m403 -88 l0 -65 -120 0 -120 0 0 -95 0 -95 105 0 105 0
0 -65 0 -65 -105 0 -106 0 3 -97 3 -98 123 -3 123 -3 -3 -62 -3 -62 -186 -3
-187 -2 -7 132 c-5 100 -2 629 4 646 1 1 84 2 186 2 l185 0 0 -65z m452 36
c80 -31 159 -106 200 -189 31 -62 33 -74 33 -167 0 -93 -2 -105 -33 -167 -42
-85 -129 -168 -209 -198 -47 -19 -86 -23 -209 -28 l-152 -5 -7 134 c-5 98 -2
613 4 648 1 2 72 1 159 -1 131 -4 166 -9 214 -27z m-412 -373 c0 -180 -3 -229
-12 -220 -8 8 -49 12 -120 12 l-108 0 0 50 0 50 90 0 c85 0 90 1 106 25 13 20
16 42 12 100 -3 41 -11 81 -18 90 -9 11 -34 15 -101 15 l-89 0 0 45 0 45 109
0 c63 0 112 4 116 10 3 6 8 10 11 10 2 0 4 -104 4 -232z"/>
<path d="M6296 212 c-3 -3 -6 -23 -6 -44 l0 -38 175 0 175 0 0 29 0 29 -57
-14 c-82 -19 -204 -9 -248 22 -18 12 -36 20 -39 16z"/>
<path d="M6862 504 l3 -259 76 2 c84 2 127 16 178 59 98 82 110 263 24 363
-47 56 -107 82 -203 88 l-80 6 2 -259z m200 164 c105 -57 138 -200 68 -296
-41 -57 -90 -83 -166 -90 l-64 -5 0 213 0 213 60 -6 c35 -3 77 -15 102 -29z"/>
<path d="M7115 217 c-76 -39 -85 -42 -182 -45 -89 -4 -108 -1 -142 16 -21 11
-42 18 -45 15 -3 -4 -6 -22 -6 -41 l0 -34 153 4 c138 3 157 6 207 29 81 38
149 100 108 98 -7 0 -49 -19 -93 -42z"/>
</g>
</svg>
